<svg width="241" height="260" viewBox="0 0 241 260" fill="none" xmlns="http://www.w3.org/2000/svg">
<path fill-rule="evenodd" clip-rule="evenodd" d="M113.362 153.65C112.341 153.874 110.833 154.461 108.256 155.641C107.141 156.15 105.973 156.581 105.662 156.594C105.351 156.61 104.874 156.831 104.608 157.084C104.343 157.337 104.012 157.541 103.879 157.541C103.798 157.541 103.717 157.541 103.636 157.541C103.529 157.541 103.419 157.541 103.312 157.541C104.226 157.045 105.137 156.549 106.051 156.053C107.556 155.232 108.943 154.659 109.131 154.775C109.319 154.892 109.472 154.834 109.472 154.652C109.472 154.137 113.051 153.216 113.362 153.65Z" fill="#C48AB2"/>
<path fill-rule="evenodd" clip-rule="evenodd" d="M127.952 128.361C183.614 128.361 183.031 128.345 189.716 130.024C196.204 131.655 204.753 135.361 210.216 138.914C219.262 144.799 226.878 152.953 231.689 161.918C235.346 168.733 238.067 176.245 239.341 183.054C240.054 186.863 240.32 196.713 239.827 200.967C238.391 213.316 232.558 226.453 223.986 236.65C215.167 247.139 201.718 255.056 187.933 257.87C181.111 259.264 176.413 259.414 144.238 259.248C112.163 259.08 113.7 259.161 106.554 257.28C102.712 256.272 96.516 253.999 94.3145 252.79C93.9644 252.598 93.611 252.404 93.2608 252.213C93.7796 251.512 94.3988 251.12 94.9727 250.89C97.2811 249.963 102.443 246.211 106.797 242.298C107.689 241.494 108.58 240.693 109.472 239.892C111.2 238.271 112.931 236.65 114.659 235.029C136.22 235.084 157.78 235.136 179.341 235.191C180.472 234.942 181.604 234.692 182.735 234.442C187.184 233.457 189.356 232.717 193.282 230.84C205.006 225.244 213.679 213.381 215.705 200.176C216.386 195.727 216.137 187.901 215.193 184.289C211.513 170.185 200.366 158.342 186.363 153.65C181.701 152.087 179.837 152.006 152.674 152.188C144.325 152.243 135.977 152.298 127.628 152.353C119.461 152.658 116.741 152.729 116.313 152.71C115.888 152.694 115.376 152.801 115.178 152.953C114.983 153.109 114.494 153.326 114.092 153.443C113.849 153.511 113.606 153.582 113.362 153.65C113.051 153.216 109.472 154.136 109.472 154.652C109.472 154.834 109.319 154.892 109.131 154.775C108.943 154.658 107.556 155.232 106.051 156.053C105.137 156.549 104.226 157.045 103.312 157.541C102.151 158.28 100.987 159.016 99.8262 159.755C90.5179 165.669 84.374 174.523 82.2601 185.064C81.4365 189.172 81.3393 196.852 82.059 200.824C83.5278 208.913 86.0826 214.055 92.9366 222.709C92.8296 222.926 92.7194 223.14 92.6124 223.357C92.0709 223.681 91.5327 224.006 90.9913 224.33C90.8843 224.437 90.7741 224.547 90.6671 224.654C90.4498 224.871 90.2359 225.085 90.0186 225.303C89.9116 225.303 89.8014 225.303 89.6944 225.303C89.4545 225.52 89.2146 225.734 88.9747 225.951C86.0567 228.574 80.117 231.771 75.6752 233.103C74.3816 233.489 73.1398 233.936 72.5108 234.381C72.0796 234.381 71.6452 234.381 71.2139 234.381C69.3983 233.363 62.7032 221.613 60.6606 215.858C59.5874 212.843 58.2452 207.068 57.7686 203.444C57.1169 198.46 57.1202 188.993 57.7751 184.493C60.1711 168.068 69.3529 152.545 82.7821 142.221C87.6551 138.477 94.6809 134.596 100.475 132.449C101.528 132.06 102.582 131.668 103.636 131.279C104.346 130.893 108.827 129.684 111.579 129.139C112.873 128.88 116.88 128.617 120.9 128.523C123.251 128.468 125.602 128.416 127.952 128.361Z" fill="url(#paint0_linear_5_4)"/>
<path fill-rule="evenodd" clip-rule="evenodd" d="M87.424 227.41C87.6019 227.3 87.7475 227.284 87.7475 227.371C87.7475 227.462 87.6019 227.623 87.424 227.733C87.2461 227.843 87.1006 227.859 87.1006 227.772C87.1006 227.682 87.2461 227.52 87.424 227.41Z" fill="#F9CBD7"/>
<path fill-rule="evenodd" clip-rule="evenodd" d="M93.2608 252.213C85.3369 255.536 80.9696 257.014 76.5635 257.861C65.4558 259.991 54.5361 259.251 43.4413 255.614C20.3375 248.037 4.12007 228.214 0.472611 203.094C-0.166099 198.704 -0.153158 17.7474 0.485553 14.2945C1.11778 10.8708 2.7389 7.86525 5.33589 5.29743C7.61191 3.04735 9.1195 2.12654 12.5595 0.88478C13.2533 0.63189 13.9439 0.382259 14.6377 0.13261C23.6088 0.100188 32.5767 0.0677475 41.5479 0.0320835C70.1569 -0.0716665 71.9726 -0.00355378 78.645 1.47813C92.0903 4.4577 103.921 11.9017 113.855 23.6385C118.573 29.2118 123.196 38.144 125.511 46.1619C127.469 52.9413 127.411 51.6964 127.693 91.6434C127.78 103.883 127.865 116.122 127.952 128.361C125.602 128.416 123.251 128.468 120.9 128.523C116.88 128.617 112.873 128.88 111.579 129.139C108.827 129.684 104.346 130.893 103.636 131.279C103.636 119.238 103.636 107.193 103.636 95.1514C103.636 71.8628 103.516 58.1613 103.299 56.5953C102.893 53.6936 101.376 48.8627 100.021 46.1717C94.8883 35.9782 86.0015 28.6833 74.2745 25.0423C73.3083 24.7408 72.3422 24.4393 71.376 24.141C63.5234 24.1054 55.6676 24.0697 47.815 24.0373C39.9624 24.0016 32.1066 23.9659 24.254 23.9303C24.2184 53.1975 24.1827 82.4647 24.147 111.729C24.0433 196.382 24.0627 199.644 24.6463 202.769C25.8881 209.4 28.2354 214.869 31.9283 219.719C37.7286 227.339 48.1165 233.389 58.0052 234.909C62.3724 235.58 69.2556 235.305 71.2139 234.381C71.6451 234.381 72.0795 234.381 72.5108 234.381C73.6488 234.05 74.7868 233.716 75.9248 233.385C79.7084 232.28 83.3397 230.646 86.2901 228.72C88.8579 227.044 92.4081 224.032 92.6123 223.357C92.7193 223.14 92.8295 222.926 92.9365 222.709C93.6304 221.937 94.321 221.162 95.0148 220.391C98.2473 216.782 101.185 211.18 102.734 205.658C103.444 203.136 103.457 202.724 103.636 157.541C103.717 157.541 103.798 157.541 103.879 157.541C104.012 157.541 104.343 157.337 104.608 157.084C104.874 156.831 105.351 156.61 105.662 156.594C105.973 156.581 107.141 156.15 108.256 155.641C110.833 154.461 112.341 153.874 113.362 153.65C113.605 153.582 113.849 153.511 114.092 153.443C114.494 153.326 114.983 153.109 115.178 152.953C115.376 152.801 115.888 152.694 116.313 152.71C116.741 152.729 119.461 152.658 127.628 152.353C127.625 159.947 127.621 167.536 127.618 175.13C127.605 198.752 127.463 202.345 126.308 208.096C124.626 216.474 121.552 223.322 114.659 234.056C114.312 234.462 113.962 234.867 113.615 235.272C113.041 235.94 111.874 237.253 109.472 239.892C108.58 240.693 107.688 241.494 106.797 242.298C102.443 246.211 97.2811 249.963 94.9726 250.89C94.3988 251.12 93.7795 251.512 93.2608 252.213Z" fill="url(#paint1_linear_5_4)"/>
<path fill-rule="evenodd" clip-rule="evenodd" d="M92.6123 223.357C92.408 224.032 88.8579 227.044 86.29 228.72C83.3396 230.646 79.7084 232.28 75.9248 233.385C74.7868 233.716 73.6487 234.05 72.5107 234.381C73.1397 233.936 74.3815 233.489 75.6751 233.103C80.1169 231.771 86.0566 228.574 88.9746 225.951C89.2145 225.734 89.4544 225.52 89.6943 225.302C89.435 225.682 89.1788 226.058 88.9194 226.437C89.101 226.249 89.2858 226.058 89.4674 225.87C89.6522 225.682 89.8338 225.491 90.0186 225.302C90.2358 225.085 90.4498 224.871 90.667 224.654C90.6054 225.03 90.761 224.959 90.975 224.735C91.189 224.511 91.2797 224.33 91.176 224.33C91.1144 224.33 91.0528 224.33 90.9912 224.33C91.5327 224.006 92.0709 223.681 92.6123 223.357ZM87.4248 227.41C87.2465 227.52 87.1006 227.682 87.1006 227.773C87.1006 227.861 87.2465 227.844 87.4248 227.734C87.6031 227.624 87.749 227.462 87.749 227.371C87.749 227.283 87.6031 227.3 87.4248 227.41Z" fill="url(#paint2_linear_5_4)"/>
<defs>
<linearGradient id="paint0_linear_5_4" x1="-152.581" y1="408.327" x2="-213.366" y2="269.549" gradientUnits="userSpaceOnUse">
<stop stop-color="#F16450"/>
<stop offset="0.136364" stop-color="#F15F4A"/>
<stop offset="0.272727" stop-color="#F05F4B"/>
<stop offset="0.363636" stop-color="#F35C4A"/>
<stop offset="0.409091" stop-color="#F25D4A"/>
<stop offset="0.454545" stop-color="#F2604B"/>
<stop offset="0.636364" stop-color="#F25D4A"/>
<stop offset="0.863636" stop-color="#F2624D"/>
<stop offset="1" stop-color="#F2604C"/>
</linearGradient>
<linearGradient id="paint1_linear_5_4" x1="-37.8176" y1="-513.132" x2="95.1931" y2="-520.336" gradientUnits="userSpaceOnUse">
<stop stop-color="#1972DC"/>
<stop offset="0.136364" stop-color="#197AE3"/>
<stop offset="0.181818" stop-color="#1C7BE5"/>
<stop offset="0.272727" stop-color="#1A77DE"/>
<stop offset="0.772727" stop-color="#1278E1"/>
<stop offset="0.863636" stop-color="#1B76E0"/>
<stop offset="1" stop-color="#187DE9"/>
</linearGradient>
<linearGradient id="paint2_linear_5_4" x1="12.4492" y1="282.073" x2="10.2802" y2="279.081" gradientUnits="userSpaceOnUse">
<stop stop-color="#8471AA"/>
<stop offset="0.0909091" stop-color="#D58F9A"/>
<stop offset="0.181818" stop-color="#E48D8B"/>
<stop offset="0.272727" stop-color="#C4869C"/>
<stop offset="0.363636" stop-color="#D4838B"/>
<stop offset="0.454545" stop-color="#CC8392"/>
<stop offset="0.545455" stop-color="#E38E8E"/>
<stop offset="0.636364" stop-color="#E29090"/>
<stop offset="0.727273" stop-color="#E28D90"/>
<stop offset="0.818182" stop-color="#D395A9"/>
<stop offset="0.909091" stop-color="#E69CA1"/>
<stop offset="1" stop-color="#F0897A"/>
</linearGradient>
</defs>
</svg>
